<?xml version="1.0" encoding="UTF-8"?>
<svg xmlns="http://www.w3.org/2000/svg"
     width="128" height="128" viewBox="0 0 128 128"
     role="img" aria-labelledby="title desc">
  <title id="title">Noetfield – AI Governance & Trust Ledger</title>
  <desc id="desc">Circular mark with connected nodes network</desc>

  <defs>
    <style type="text/css"><![CDATA[
      .bg   { fill: #0E2440; }
      .line { stroke: #FFFFFF; stroke-width: 2.4;
              stroke-linecap: round; stroke-linejoin: round;
              fill: none; }
      .node { fill: #FFFFFF; }
    ]]></style>
  </defs>

  <!-- Outer circle -->
  <circle class="bg" cx="64" cy="64" r="60" />

  <!-- Network lines -->
  <path class="line" d="M36 44 L56 28 L80 32 L96 52 L88 80 L60 96 L36 80 Z" />
  <path class="line" d="M56 28 L60 52 L80 32" />
  <path class="line" d="M60 52 L96 52 L88 80 L60 52 L36 80 L36 44 L80 32" />

  <!-- Nodes -->
  <circle class="node" cx="56" cy="28" r="3.2" />
  <circle class="node" cx="80" cy="32" r="3.2" />
  <circle class="node" cx="96" cy="52" r="3.2" />
  <circle class="node" cx="88" cy="80" r="3.2" />
  <circle class="node" cx="60" cy="96" r="3.2" />
  <circle class="node" cx="36" cy="80" r="3.2" />
  <circle class="node" cx="36" cy="44" r="3.2" />
  <circle class="node" cx="60" cy="52" r="3.2" />
</svg>

