<svg xmlns="http://www.w3.org/2000/svg" viewBox="0 0 128 128">
  <!-- Dark circular background -->
  <circle cx="64" cy="64" r="60" fill="#0E2440" />

  <!-- Network lines -->
  <path d="M36 44 L56 28 L80 32 L96 52 L88 80 L60 96 L36 80 Z"
        fill="none" stroke="#FFFFFF" stroke-width="2.4"
        stroke-linecap="round" stroke-linejoin="round" />
  <path d="M56 28 L60 52 L80 32"
        fill="none" stroke="#FFFFFF" stroke-width="2.4"
        stroke-linecap="round" stroke-linejoin="round" />
  <path d="M60 52 L96 52 L88 80 L60 52 L36 80 L36 44 L80 32"
        fill="none" stroke="#FFFFFF" stroke-width="2.4"
        stroke-linecap="round" stroke-linejoin="round" />

  <!-- Nodes -->
  <circle cx="56" cy="28" r="3.2" fill="#FFFFFF" />
  <circle cx="80" cy="32" r="3.2" fill="#FFFFFF" />
  <circle cx="96" cy="52" r="3.2" fill="#FFFFFF" />
  <circle cx="88" cy="80" r="3.2" fill="#FFFFFF" />
  <circle cx="60" cy="96" r="3.2" fill="#FFFFFF" />
  <circle cx="36" cy="80" r="3.2" fill="#FFFFFF" />
  <circle cx="36" cy="44" r="3.2" fill="#FFFFFF" />
  <circle cx="60" cy="52" r="3.2" fill="#FFFFFF" />
</svg>
