<svg width="64" height="64" viewBox="0 0 64 64" fill="none" xmlns="http://www.w3.org/2000/svg">
  <!-- Navy circle background -->
  <circle cx="32" cy="32" r="30" fill="#0B2340"/>

  <!-- Network lines -->
  <g stroke="#FFFFFF" stroke-width="2">
    <line x1="22" y1="20" x2="32" y2="16"/>
    <line x1="22" y1="20" x2="18" y2="32"/>
    <line x1="22" y1="20" x2="30" y2="30"/>

    <line x1="32" y1="16" x2="44" y2="22"/>
    <line x1="32" y1="16" x2="34" y2="30"/>

    <line x1="18" y1="32" x2="24" y2="44"/>
    <line x1="18" y1="32" x2="32" y2="34"/>

    <line x1="24" y1="44" x2="36" y2="46"/>
    <line x1="24" y1="44" x2="30" y2="30"/>

    <line x1="44" y1="22" x2="46" y2="34"/>
    <line x1="44" y1="22" x2="34" y2="30"/>

    <line x1="46" y1="34" x2="36" y2="46"/>
    <line x1="46" y1="34" x2="32" y2="34"/>

    <line x1="30" y1="30" x2="34" y2="30"/>
    <line x1="30" y1="30" x2="32" y2="34"/>
    <line x1="34" y1="30" x2="32" y2="34"/>
  </g>

  <!-- Nodes -->
  <g fill="#FFFFFF">
    <circle cx="22" cy="20" r="2.1"/>
    <circle cx="32" cy="16" r="2.1"/>
    <circle cx="44" cy="22" r="2.1"/>
    <circle cx="18" cy="32" r="2.1"/>
    <circle cx="24" cy="44" r="2.1"/>
    <circle cx="36" cy="46" r="2.1"/>
    <circle cx="46" cy="34" r="2.1"/>
    <circle cx="30" cy="30" r="2.1"/>
    <circle cx="34" cy="30" r="2.1"/>
    <circle cx="32" cy="34" r="2.1"/>
  </g>
</svg>
